<?xml version="1.0" standalone="no"?>
<!DOCTYPE svg PUBLIC "-//W3C//DTD SVG 20010904//EN"
 "http://www.w3.org/TR/2001/REC-SVG-20010904/DTD/svg10.dtd">
<svg version="1.0" xmlns="http://www.w3.org/2000/svg"
 width="298.000000pt" height="298.000000pt" viewBox="0 0 298.000000 298.000000"
 preserveAspectRatio="xMidYMid meet">
<metadata>
Created by potrace 1.11, written by Peter Selinger 2001-2013
</metadata>
<g transform="translate(0.000000,298.000000) scale(0.100000,-0.100000)"
fill="#000000" stroke="none">
<path d="M1131 2953 c-13 -3 -26 -13 -28 -24 -5 -16 -8 -17 -20 -7 -17 14 -66
13 -105 -3 -27 -11 -30 -16 -32 -49 -1 -9 -13 -16 -29 -18 -25 -3 -27 -5 -12
-16 15 -11 10 -17 -42 -51 -143 -94 -354 -344 -313 -370 11 -7 3 -32 -22 -64
-22 -30 -22 -33 1 -60 18 -21 19 -25 4 -74 -18 -61 -24 -167 -11 -184 6 -7 7
-13 2 -13 -5 0 6 -9 24 -20 30 -18 33 -25 31 -63 -1 -23 2 -80 6 -127 10 -113
10 -118 -17 -140 -22 -19 -22 -21 -5 -34 14 -11 16 -19 8 -33 -12 -23 -6 -174
8 -200 33 -61 91 -192 95 -214 2 -14 13 -44 25 -66 11 -22 18 -43 16 -45 -3
-3 4 -13 15 -23 11 -10 20 -26 20 -36 0 -9 14 -59 30 -110 31 -93 60 -144 109
-187 14 -12 49 -42 76 -66 28 -24 65 -58 83 -76 l33 -31 -40 -40 c-23 -21 -41
-43 -41 -48 0 -6 -12 -16 -27 -23 -14 -7 -28 -22 -29 -33 -2 -10 -8 -29 -15
-41 -10 -20 -14 -21 -26 -8 -28 27 -111 10 -120 -26 -4 -13 -14 -20 -30 -20
-13 0 -21 4 -18 10 8 13 -9 13 -98 -1 -97 -15 -105 -20 -76 -48 69 -65 298
-166 476 -210 133 -33 204 -42 228 -28 12 6 20 4 29 -9 16 -21 87 -15 111 10
20 20 55 21 55 2 0 -45 93 -46 104 -1 6 24 26 35 26 15 0 -7 6 -7 20 0 14 8
20 8 20 0 0 -6 5 -8 10 -5 6 3 10 -3 10 -14 0 -24 9 -25 82 -11 87 17 172 42
187 56 10 9 18 10 31 1 14 -8 43 -3 132 27 157 51 243 95 243 123 1 31 10 37
60 39 67 3 91 28 38 39 -59 13 -368 89 -373 92 -2 2 -5 16 -5 31 -1 15 -5 42
-9 60 -7 30 -10 33 -36 27 -18 -4 -40 0 -60 10 l-32 17 36 33 c20 18 36 39 36
47 0 8 16 20 36 27 46 17 93 66 87 90 -5 19 38 61 61 61 7 0 17 5 24 12 9 9 8
16 -4 29 -14 16 -14 18 4 23 33 11 75 120 49 129 -16 5 20 58 44 64 14 4 19
14 19 37 0 18 8 57 17 87 9 30 17 56 18 59 0 3 15 30 32 60 18 30 33 60 33 65
1 6 6 15 12 22 5 7 7 17 4 22 -4 5 -2 12 2 15 5 3 10 31 11 63 4 93 6 107 18
129 10 17 7 24 -22 47 -32 25 -34 31 -32 80 2 43 6 54 25 62 12 5 20 16 17 22
-2 7 -1 13 4 13 4 0 7 51 5 113 -1 105 -4 131 -19 177 -3 10 -8 28 -10 41 -7
37 -38 113 -52 130 -25 29 -7 59 35 59 32 0 28 10 -25 64 -35 34 -54 46 -70
43 -17 -3 -20 0 -18 15 3 15 -9 25 -55 46 l-60 27 2 70 c2 97 -6 118 -42 110
-30 -7 -30 -6 -45 55 -11 42 -38 90 -51 90 -23 0 -32 -24 -35 -91 -2 -30 -5
-35 -20 -32 -13 4 -21 -2 -27 -17 -8 -21 -9 -21 -58 17 -105 83 -268 160 -374
178 -135 22 -322 30 -389 18z m-494 -1249 c-3 -3 -12 -4 -19 -1 -8 3 -5 6 6 6
11 1 17 -2 13 -5z m1717 -108 c-3 -8 -13 -17 -22 -21 -13 -5 -13 -2 3 15 21
24 26 25 19 6z"/>
</g>
</svg>
